TITLE ""
FILE "Step1_Track42.mp3" MP3
  TRACK 01 AUDIO
    TITLE "Step1_Track42_01"
    INDEX 01 00:00:00
  TRACK 02 AUDIO
    TITLE "Step1_Track42_02"
    INDEX 01 00:00:24
  TRACK 03 AUDIO
    TITLE "Step1_Track42_03"
    INDEX 01 00:02:09
  TRACK 04 AUDIO
    TITLE "Step1_Track42_04"
    INDEX 01 00:02:64
  TRACK 05 AUDIO
    TITLE "Step1_Track42_05"
    INDEX 01 00:03:63
  TRACK 06 AUDIO
    TITLE "Step1_Track42_06"
    INDEX 01 00:04:14
  TRACK 07 AUDIO
    TITLE "Step1_Track42_07"
    INDEX 01 00:06:01
  TRACK 08 AUDIO
    TITLE "Step1_Track42_08"
    INDEX 01 00:06:15
  TRACK 09 AUDIO
    TITLE "Step1_Track42_09"
    INDEX 01 00:07:12
  TRACK 10 AUDIO
    TITLE "Step1_Track42_10"
    INDEX 01 00:07:30
  TRACK 11 AUDIO
    TITLE "Step1_Track42_11"
    INDEX 01 00:09:19
  TRACK 12 AUDIO
    TITLE "Step1_Track42_12"
    INDEX 01 00:09:45
  TRACK 13 AUDIO
    TITLE "Step1_Track42_13"
    INDEX 01 00:10:38
  TRACK 14 AUDIO
    TITLE "Step1_Track42_14"
    INDEX 01 00:10:48
  TRACK 15 AUDIO
    TITLE "Step1_Track42_15"
    INDEX 01 00:12:47
  TRACK 16 AUDIO
    TITLE "Step1_Track42_16"
    INDEX 01 00:12:61
  TRACK 17 AUDIO
    TITLE "Step1_Track42_17"
    INDEX 01 00:13:54
  TRACK 18 AUDIO
    TITLE "Step1_Track42_18"
    INDEX 01 00:13:68
  TRACK 19 AUDIO
    TITLE "Step1_Track42_19"
    INDEX 01 00:16:15
  TRACK 20 AUDIO
    TITLE "Step1_Track42_20"
    INDEX 01 00:16:33
  TRACK 21 AUDIO
    TITLE "Step1_Track42_21"
    INDEX 01 00:17:24
  TRACK 22 AUDIO
    TITLE "Step1_Track42_22"
    INDEX 01 00:17:40
  TRACK 23 AUDIO
    TITLE "Step1_Track42_23"
    INDEX 01 00:19:55
  TRACK 24 AUDIO
    TITLE "Step1_Track42_24"
    INDEX 01 00:19:74
  TRACK 25 AUDIO
    TITLE "Step1_Track42_25"
    INDEX 01 00:21:03
  TRACK 26 AUDIO
    TITLE "Step1_Track42_26"
    INDEX 01 00:21:12
  TRACK 27 AUDIO
    TITLE "Step1_Track42_27"
    INDEX 01 00:23:25
  TRACK 28 AUDIO
    TITLE "Step1_Track42_28"
    INDEX 01 00:23:56
  TRACK 29 AUDIO
    TITLE "Step1_Track42_29"
    INDEX 01 00:24:62
  TRACK 30 AUDIO
    TITLE "Step1_Track42_30"
    INDEX 01 00:25:08
  TRACK 31 AUDIO
    TITLE "Step1_Track42_31"
    INDEX 01 00:27:64
  TRACK 32 AUDIO
    TITLE "Step1_Track42_32"
    INDEX 01 00:28:22
  TRACK 33 AUDIO
    TITLE "Step1_Track42_33"
    INDEX 01 00:29:14
  TRACK 34 AUDIO
    TITLE "Step1_Track42_34"
    INDEX 01 00:29:30
  TRACK 35 AUDIO
    TITLE "Step1_Track42_35"
    INDEX 01 00:31:25
  TRACK 36 AUDIO
    TITLE "Step1_Track42_36"
    INDEX 01 00:31:44
  TRACK 37 AUDIO
    TITLE "Step1_Track42_37"
    INDEX 01 00:32:46
  TRACK 38 AUDIO
    TITLE "Step1_Track42_38"
    INDEX 01 00:32:61
  TRACK 39 AUDIO
    TITLE "Step1_Track42_39"
    INDEX 01 00:34:54
  TRACK 40 AUDIO
    TITLE "Step1_Track42_40"
    INDEX 01 00:35:11
  TRACK 41 AUDIO
    TITLE "Step1_Track42_41"
    INDEX 01 00:36:06
  TRACK 42 AUDIO
    TITLE "Step1_Track42_42"
    INDEX 01 00:36:14
  TRACK 43 AUDIO
    TITLE "Step1_Track42_43"
    INDEX 01 00:38:23
